<svg width="54" height="80" viewBox="0 0 54 80" fill="none" xmlns="http://www.w3.org/2000/svg" className="absolute">
  <g clipPath="url(#a)" fill="#00501E">
    <path d="M.643 78.855V61.993h2.023v15.031h8.803v1.83H.643Zm12.881 0V61.993h10.383v1.83h-8.36v5.64h6.775v1.831h-6.774v5.734h8.48v1.83l-10.504-.003Zm12.478 0V61.993h4.29l5.878 15.586h.677V61.993h2.001v16.862h-4.292l-5.854-15.607h-.7v15.609l-2-.002Zm21.405.336a7.913 7.913 0 0 1-3.275-.65 5.123 5.123 0 0 1-2.276-1.963c-.553-.876-.83-1.972-.832-3.288v-.506h2.002v.506c0 1.398.41 2.437 1.228 3.12.819.68 1.87 1.025 3.154 1.03 1.316 0 2.319-.296 3.01-.89a2.83 2.83 0 0 0 1.036-2.24 2.227 2.227 0 0 0-.471-1.495 3.366 3.366 0 0 0-1.312-.91 12.806 12.806 0 0 0-1.967-.614l-1.252-.313a14.017 14.017 0 0 1-2.602-.94 4.572 4.572 0 0 1-1.77-1.455c-.426-.606-.639-1.382-.639-2.325a4.231 4.231 0 0 1 .712-2.457 4.513 4.513 0 0 1 2.001-1.59 7.476 7.476 0 0 1 2.975-.546 7.66 7.66 0 0 1 3.072.59 4.91 4.91 0 0 1 2.132 1.72c.523.765.784 1.725.783 2.88v1.011h-2.002v-1.012c0-.818-.172-1.477-.517-1.974a3.06 3.06 0 0 0-1.42-1.108 5.494 5.494 0 0 0-2.06-.364c-1.108 0-2 .243-2.675.728-.676.485-1.013 1.18-1.012 2.083a2.28 2.28 0 0 0 .433 1.445c.327.402.75.714 1.23.91.614.261 1.25.466 1.901.613l1.254.315c.909.185 1.793.472 2.637.855.735.326 1.377.83 1.867 1.469.465.618.698 1.425.698 2.421a4.55 4.55 0 0 1-.746 2.6 4.914 4.914 0 0 1-2.107 1.724 7.706 7.706 0 0 1-3.19.62ZM27.064 39.912c-.534 0-13.23-.111-22.94-9.826a27.514 27.514 0 0 1-.603-.619C1.487 27.324.522 24.773.726 22.093.908 19.727 2 17.436 3.792 15.638c1.792-1.797 4.09-2.886 6.454-3.066 2.476-.182 4.844.623 6.884 2.351.22-2.664 1.319-4.913 3.204-6.528C22.134 6.85 24.519 6 27.066 6 29.614 6 32 6.85 33.8 8.395c1.883 1.617 2.984 3.864 3.204 6.528 2.04-1.728 4.407-2.547 6.884-2.35 2.365.181 4.656 1.273 6.452 3.065 1.796 1.793 2.888 4.09 3.066 6.455.206 2.68-.76 5.23-2.793 7.378-.197.207-.397.415-.602.619-9.713 9.71-22.409 9.822-22.945 9.822Zm-16.116-25.35c-2.201 0-4.268 1.024-5.739 2.492-2.642 2.644-3.843 7.226-.232 11.041.184.196.372.39.564.58 9.13 9.13 21.403 9.235 21.525 9.235.122 0 12.42-.127 21.528-9.234.193-.193.38-.387.564-.58 3.61-3.822 2.41-8.398-.233-11.042-2.642-2.644-7.225-3.845-11.047-.233a23.075 23.075 0 0 0-1.013 1.014l-1.898 2.012.075-2.762c0-.211.012-.42.012-.633 0-.273 0-.546-.01-.81C34.897 10.392 30.808 8 27.07 8c-3.74 0-7.824 2.39-7.972 7.642 0 .268-.01.546-.01.81 0 .207 0 .411.01.617l.075 2.778-1.9-2.002a26.547 26.547 0 0 0-.438-.456 30.43 30.43 0 0 0-.58-.564c-1.702-1.614-3.549-2.264-5.307-2.264Z" />
    <path d="M25.782 29.31h-1.456c0-2.166-2.11-3.931-4.702-3.931-2.59 0-4.701 1.764-4.701 3.932h-1.456c0-2.972 2.762-5.388 6.157-5.388 3.396 0 6.158 2.416 6.158 5.388Zm14.801-.06h-1.456c0-2.166-2.109-3.93-4.702-3.93s-4.702 1.764-4.702 3.93h-1.455c0-2.969 2.762-5.385 6.157-5.385s6.158 2.416 6.158 5.386Z" />
    <path d="M21.3 29.341a2.094 2.094 0 1 0 0-4.188 2.094 2.094 0 0 0 0 4.189Zm14.703 0a2.094 2.094 0 1 0 0-4.188 2.094 2.094 0 0 0 0 4.189Zm-8.943 5.321c-1.716 0-3.307-.883-4.05-2.247l1.274-.695c.494.91 1.58 1.486 2.772 1.486 1.191 0 2.28-.584 2.77-1.486l1.275.695c-.735 1.364-2.32 2.247-4.042 2.247ZM53.147 54.84a18.176 18.176 0 0 1-11.69 1.273 17.861 17.861 0 0 1-8.62-4.667 12.28 12.28 0 0 0 4.758.936c2.822 0 5.575-.877 7.877-2.511l-1.168-1.627c-3.15 2.267-7.483 2.813-10.901 1.268-3.374-1.52-5.277-4.77-5.4-9.18v-1.42h-2v1.41c-.117 4.414-2.024 7.669-5.401 9.19-3.42 1.541-7.76 1.003-10.901-1.274l-1.167 1.627a13.6 13.6 0 0 0 7.873 2.515 12.26 12.26 0 0 0 4.759-.936 17.855 17.855 0 0 1-8.62 4.668c-3.93.882-8.041.434-11.689-1.274l-.853 1.81a20.103 20.103 0 0 0 8.561 1.906c1.487 0 2.97-.164 4.42-.49a19.884 19.884 0 0 0 11.263-7.047l.013-.017a17.999 17.999 0 0 0 1.745-2.783v10.3h2.001V48.231a18.07 18.07 0 0 0 1.74 2.771l.013.017a19.887 19.887 0 0 0 11.261 7.047c1.45.326 2.933.49 4.42.49 2.96.002 5.883-.648 8.563-1.906l-.857-1.81Z" />
  </g>
  <defs>
    <clipPath id="a">
      <path fill="#fff" transform="translate(0 6)" d="M0 0h54v73.193H0z" />
    </clipPath>
  </defs>
</svg>