<svg width="100" height="100" viewBox="0 0 100 100" fill="none" xmlns="http://www.w3.org/2000/svg">
<circle cx="50" cy="50" r="50" fill="url(#paint0_linear_268_7)"/>
<path d="M49.5676 58.308C48.9644 58.308 34.6226 58.1826 23.6539 47.2083C23.4232 46.9788 23.1961 46.7456 22.9727 46.509C20.675 44.0882 19.5849 41.2065 19.8154 38.1791C20.021 35.5064 21.2545 32.9184 23.2788 30.8874C25.3031 28.8574 27.899 27.6273 30.5695 27.4239C33.3664 27.2183 36.0414 28.1277 38.3458 30.0797C38.5944 27.0704 39.8358 24.5298 41.9652 22.7055C43.9985 20.9602 46.6927 20 49.5698 20C52.4481 20 55.1434 20.9602 57.1768 22.7055C59.3039 24.5321 60.5476 27.0704 60.7961 30.0797C63.1005 28.1277 65.7744 27.2025 68.5725 27.4251C71.244 27.6295 73.832 28.8631 75.8608 30.8874C77.8897 32.9128 79.1232 35.5076 79.3243 38.1791C79.557 41.2065 78.4658 44.0871 76.1692 46.5135C75.9467 46.7474 75.7208 46.9823 75.4892 47.2128C64.5171 58.1815 50.1753 58.308 49.5698 58.308H49.5676ZM31.3625 29.6719C28.8762 29.6719 26.5412 30.8286 24.8795 32.4869C21.895 35.4737 20.5384 40.6496 24.6174 44.9592C24.8253 45.1806 25.0377 45.3997 25.2546 45.6144C35.5681 55.9279 49.432 56.0465 49.5698 56.0465C49.7077 56.0465 63.5998 55.903 73.8885 45.6155C74.1065 45.3975 74.3178 45.1783 74.5256 44.9603C78.6036 40.6429 77.248 35.4737 74.2624 32.4869C71.2779 29.5002 66.1008 28.1435 61.7834 32.2237C61.3902 32.5936 61.0086 32.9756 60.6391 33.3692L58.495 35.642L58.5798 32.5219C58.5798 32.2836 58.5933 32.0475 58.5933 31.8069C58.5933 31.4985 58.5933 31.1901 58.582 30.8919C58.416 24.9613 53.7969 22.2593 49.5744 22.2593C45.3495 22.2593 40.7361 24.9591 40.5689 30.8919C40.5689 31.1946 40.5577 31.5087 40.5577 31.8069C40.5577 32.0407 40.5577 32.2712 40.5689 32.5039L40.6537 35.642L38.5074 33.3805C38.3445 33.2068 38.1796 33.0351 38.0126 32.8654C37.797 32.6501 37.5786 32.4377 37.3574 32.2282C35.4348 30.405 33.3484 29.6708 31.3625 29.6708V29.6719Z" fill="white"/>
<path d="M48.1194 46.332H46.4747C46.4747 43.8852 44.0911 41.8914 41.1631 41.8914C38.2374 41.8914 35.8527 43.8841 35.8527 46.3331H34.208C34.208 42.9759 37.328 40.2467 41.1631 40.2467C44.9994 40.2467 48.1194 42.9759 48.1194 46.3331V46.332ZM64.839 46.2642H63.1943C63.1943 43.8174 60.8119 41.8248 57.8828 41.8248C54.9537 41.8248 52.5713 43.8174 52.5713 46.2642H50.9277C50.9277 42.9103 54.0477 40.1812 57.8828 40.1812C61.7179 40.1812 64.839 42.9103 64.839 46.2653V46.2642Z" fill="white"/>
<path d="M43.0566 46.3666C43.3672 46.3666 43.6748 46.3054 43.9618 46.1866C44.2488 46.0677 44.5096 45.8935 44.7292 45.6738C44.9489 45.4542 45.1231 45.1934 45.242 44.9064C45.3609 44.6194 45.422 44.3118 45.422 44.0012C45.422 43.6906 45.3609 43.383 45.242 43.096C45.1231 42.809 44.9489 42.5482 44.7292 42.3286C44.5096 42.1089 44.2488 41.9347 43.9618 41.8158C43.6748 41.6969 43.3672 41.6357 43.0566 41.6357C42.4291 41.6357 41.8273 41.885 41.3836 42.3287C40.9399 42.7724 40.6906 43.3742 40.6906 44.0018C40.6906 44.6293 40.9399 45.2311 41.3836 45.6748C41.8273 46.1185 42.4291 46.3678 43.0566 46.3678V46.3666ZM59.6655 46.3666C59.9762 46.3666 60.2838 46.3054 60.5708 46.1866C60.8577 46.0677 61.1185 45.8935 61.3382 45.6738C61.5578 45.4542 61.732 45.1934 61.8509 44.9064C61.9698 44.6194 62.031 44.3118 62.031 44.0012C62.031 43.6906 61.9698 43.383 61.8509 43.096C61.732 42.809 61.5578 42.5482 61.3382 42.3286C61.1185 42.1089 60.8577 41.9347 60.5708 41.8158C60.2838 41.6969 59.9762 41.6357 59.6655 41.6357C59.038 41.6357 58.4362 41.885 57.9925 42.3287C57.5488 42.7724 57.2995 43.3742 57.2995 44.0018C57.2995 44.6293 57.5488 45.2311 57.9925 45.6748C58.4362 46.1185 59.038 46.3678 59.6655 46.3678V46.3666ZM49.5633 52.3774C47.6248 52.3774 45.8276 51.3799 44.9883 49.8391L46.4274 49.054C46.9854 50.082 48.2122 50.7327 49.5587 50.7327C50.9041 50.7327 52.1343 50.0729 52.6878 49.054L54.1281 49.8391C53.2978 51.3799 51.5074 52.3774 49.5621 52.3774H49.5633ZM79.0319 75.1711C74.9111 77.1004 70.2661 77.6062 65.8265 76.6091C62.1526 75.7942 58.7798 73.9681 56.0891 71.3371C57.7926 72.0433 59.6198 72.4027 61.4639 72.3944C64.6517 72.3944 67.7616 71.4037 70.362 69.5579L69.0426 67.72C65.4843 70.2809 60.5896 70.8977 56.7285 69.1524C52.9171 67.4354 50.7674 63.7641 50.6285 58.7824V57.1783H48.3692V58.7711C48.2371 63.7573 46.0829 67.4342 42.2681 69.1524C38.4048 70.8932 33.5022 70.2854 29.954 67.7132L28.6357 69.5512C31.2338 71.3978 34.3418 72.3907 37.5293 72.3922C39.3738 72.4012 41.2015 72.0418 42.9052 71.3348C40.2149 73.9666 36.842 75.7931 33.1678 76.6079C28.7284 77.6043 24.0845 77.0982 19.9636 75.1688L19 77.2134C22.0258 78.6341 25.328 79.3693 28.6708 79.3665C30.3505 79.3665 32.0258 79.1812 33.6637 78.813C38.692 77.6967 43.1839 74.8863 46.3867 70.8525L46.4014 70.8333C47.1529 69.8476 47.8128 68.7953 48.3726 67.6895V79.3247H50.633V67.7053C51.1922 68.806 51.8501 69.8537 52.5986 70.8355L52.6133 70.8547C55.8157 74.8879 60.3067 77.6983 65.334 78.8152C66.972 79.1835 68.6472 79.3688 70.327 79.3688C73.6707 79.371 76.9726 78.6368 80 77.2157L79.0319 75.1711V75.1711Z" fill="white"/>
<defs>
<linearGradient id="paint0_linear_268_7" x1="0" y1="0" x2="118.897" y2="37.9658" gradientUnits="userSpaceOnUse">
<stop stop-color="#12C2E9"/>
<stop offset="0.567708" stop-color="#C471ED"/>
<stop offset="1" stop-color="#F64F59"/>
</linearGradient>
</defs>
</svg>
