<svg width="202" height="38" viewBox="0 0 202 38" fill="none" xmlns="http://www.w3.org/2000/svg">
<path d="M76.125 36.0568L89.9484 9.35606H78.621C78.3638 9.34436 78.1202 9.237 77.9381 9.05502C77.7561 8.87304 77.6487 8.62957 77.6369 8.37247V2.71089C77.6487 2.45379 77.7561 2.21032 77.9381 2.02834C78.1202 1.84636 78.3638 1.739 78.621 1.72729H100.724C100.981 1.739 101.225 1.84636 101.407 2.02834C101.589 2.21032 101.696 2.45379 101.708 2.71089V3.3826L88.3404 30.3472H99.6681C99.9291 30.3472 100.179 30.4509 100.364 30.6353C100.548 30.8198 100.652 31.07 100.652 31.3308V36.9924C100.652 37.2533 100.548 37.5034 100.364 37.6879C100.179 37.8724 99.9291 37.976 99.6681 37.976H77.1331C76.8717 37.9702 76.622 37.8654 76.4349 37.6829C76.2478 37.5003 76.1371 37.2535 76.125 36.9924V36.0568Z" fill="white"/>
<path d="M107.564 2.61494C107.577 2.35385 107.687 2.10706 107.874 1.92449C108.062 1.74191 108.311 1.63715 108.573 1.63135H114.788C115.05 1.63715 115.299 1.74191 115.486 1.92449C115.673 2.10706 115.784 2.35385 115.796 2.61494V36.9924C115.784 37.2535 115.673 37.5003 115.486 37.6829C115.299 37.8655 115.05 37.9702 114.788 37.976H108.573C108.311 37.9702 108.062 37.8655 107.874 37.6829C107.687 37.5003 107.577 37.2535 107.564 36.9924V2.61494Z" fill="white"/>
<path d="M124.724 2.61494C124.724 2.35408 124.827 2.10389 125.012 1.91943C125.196 1.73498 125.447 1.63135 125.708 1.63135H131.899C132.156 1.64305 132.4 1.75041 132.582 1.93239C132.764 2.11438 132.872 2.35785 132.883 2.61494V30.3473H145.243C145.372 30.3473 145.5 30.3727 145.619 30.4222C145.739 30.4716 145.847 30.544 145.939 30.6353C146.03 30.7267 146.102 30.8351 146.152 30.9545C146.201 31.0738 146.227 31.2017 146.227 31.3309V36.9924C146.227 37.1216 146.201 37.2496 146.152 37.3689C146.102 37.4882 146.03 37.5966 145.939 37.6879C145.847 37.7793 145.739 37.8518 145.619 37.9012C145.5 37.9506 145.372 37.976 145.243 37.976H125.708C125.578 37.976 125.451 37.9506 125.331 37.9012C125.212 37.8518 125.103 37.7793 125.012 37.6879C124.921 37.5966 124.848 37.4882 124.799 37.3689C124.749 37.2496 124.724 37.1216 124.724 36.9924V2.61494Z" fill="white"/>
<path d="M151.267 2.61494C151.267 2.35408 151.37 2.10389 151.555 1.91943C151.739 1.73498 151.989 1.63135 152.25 1.63135H158.442C158.701 1.63744 158.948 1.74302 159.131 1.92617C159.315 2.10932 159.42 2.356 159.426 2.61494V30.3473H171.858C172.117 30.3534 172.363 30.4589 172.547 30.6421C172.73 30.8252 172.836 31.0719 172.842 31.3309V36.9924C172.842 37.1216 172.816 37.2496 172.767 37.3689C172.717 37.4882 172.645 37.5966 172.553 37.6879C172.462 37.7793 172.353 37.8518 172.234 37.9012C172.115 37.9506 171.987 37.976 171.858 37.976H152.298C152.169 37.976 152.041 37.9506 151.922 37.9012C151.803 37.8518 151.694 37.7793 151.603 37.6879C151.511 37.5966 151.439 37.4882 151.389 37.3689C151.34 37.2496 151.314 37.1216 151.314 36.9924L151.267 2.61494Z" fill="white"/>
<path d="M182.033 20.4873L170.562 3.14263C170.459 2.99676 170.399 2.82519 170.388 2.64714C170.378 2.46908 170.417 2.29155 170.502 2.13458C170.587 1.97762 170.714 1.84741 170.868 1.7585C171.023 1.66959 171.199 1.62551 171.378 1.63126H178.145C178.308 1.63768 178.466 1.6823 178.608 1.7615C178.75 1.8407 178.871 1.95227 178.961 2.08707L186.161 12.7386L193.361 2.08707C193.452 1.94755 193.577 1.83285 193.723 1.7533C193.87 1.67375 194.034 1.63182 194.201 1.63126H200.944C201.125 1.62078 201.304 1.66137 201.463 1.74839C201.621 1.83542 201.752 1.96537 201.839 2.12324C201.927 2.2811 201.968 2.46051 201.959 2.64084C201.949 2.82117 201.888 2.99509 201.784 3.14263L190.145 20.4393V36.9923C190.133 37.2494 190.026 37.4929 189.844 37.6749C189.662 37.8569 189.418 37.9642 189.161 37.9759H182.969C182.708 37.9759 182.458 37.8723 182.273 37.6878C182.089 37.5034 181.985 37.2532 181.985 36.9923L182.033 20.4873Z" fill="white"/>
<path d="M43 8.9842C43 10.8448 42.2645 12.6292 40.9555 13.9448C39.6465 15.2604 37.8712 15.9995 36.02 15.9995C34.9933 16.0127 33.9799 15.7676 33.0715 15.2867L32.6978 15.0992C29.1618 13.467 25.3752 12.452 21.5001 12.0979C17.6251 12.4528 13.8384 13.4677 10.3022 15.0992L9.92875 15.2867C9.02031 15.7676 8.00672 16.0127 6.98004 15.9995C5.12881 15.9995 3.3535 15.2604 2.04448 13.9448C0.735469 12.6292 0 10.8448 0 8.9842C0.00986512 7.13013 0.749522 5.3554 2.05747 4.04787C3.36542 2.74035 5.13526 2.00643 6.98004 2.00646C8.00185 1.998 9.01145 2.22918 9.92875 2.6817C13.5328 4.37657 17.3932 5.45436 21.3507 5.8705C25.3207 5.45777 29.194 4.37992 32.8099 2.6817C33.7272 2.22918 34.7371 1.998 35.7589 2.00646C36.6954 1.96594 37.6302 2.11636 38.5073 2.44884C39.3844 2.78132 40.1854 3.28891 40.8621 3.94094C41.5388 4.59297 42.0771 5.37594 42.4446 6.2427C42.812 7.10946 43.0009 8.04205 43 8.9842Z" fill="white"/>
<path d="M58 30.9842C58 32.8448 57.2645 34.6292 55.9555 35.9448C54.6465 37.2604 52.8712 37.9995 51.02 37.9995C49.9933 38.0127 48.9799 37.7676 48.0715 37.2867H47.6978C44.1618 35.6545 40.375 34.6397 36.4999 34.2855C32.6249 34.6404 28.8382 35.6552 25.3019 37.2867H24.9288C24.0203 37.7676 23.007 38.0127 21.9803 37.9995C20.129 37.9995 18.3535 37.2604 17.0445 35.9448C15.7355 34.6292 15 32.8448 15 30.9842C15.0099 29.1301 15.7495 27.3554 17.0575 26.0479C18.3654 24.7404 20.1355 24.0064 21.9803 24.0065C23.0021 23.998 24.0115 24.2292 24.9288 24.6817C28.5328 26.3766 32.3934 27.4544 36.3509 27.8705C40.3209 27.4578 44.194 26.3799 47.8099 24.6817C48.7272 24.2292 49.7371 23.998 50.7589 24.0065C51.6954 23.9659 52.6302 24.1164 53.5073 24.4488C54.3844 24.7813 55.1854 25.2889 55.8621 25.9409C56.5388 26.593 57.0771 27.3759 57.4446 28.2427C57.812 29.1095 58.0009 30.0421 58 30.9842Z" fill="white"/>
</svg>
